FFmpeg version SVN-r25716, Copyright (c) 2000-2010 the FFmpeg developers  built on Nov 10 2010 12:23:18 with gcc 4.1.2 20080704 (Red Hat 4.1.2-48)  configuration: --enable-libmp3lame --enable-shared --disable-mmx --arch=x86_64  libavutil     50.33. 0 / 50.33. 0  libavcore      0.12. 1 /  0.12. 1  libavcodec    52.94. 4 / 52.94. 4  libavformat   52.84. 0 / 52.84. 0  libavdevice   52. 2. 2 / 52. 2. 2  libavfilter    1.59. 0 /  1.59. 0  libswscale     0.12. 0 /  0.12. 0Seems stream 0 codec frame rate differs from container frame rate: 1200.00 (1200/1) -> 30.00 (30/1)Input #0, mov,mp4,m4a,3gp,3g2,mj2, from '/RAID10/data/converted_video_files/13399.mov':  Metadata:    major_brand     : qt      minor_version   : 537199360    compatible_brands: qt    Duration: 00:00:08.33, start: 0.000000, bitrate: 12247 kb/s    Stream #0.0(eng): Video: h264, yuv420p, 512x512, 12238 kb/s, 30 fps, 30 tbr, 600 tbn, 1200 tbc[buffer @ 0x3d9e4a0] w:512 h:512 pixfmt:yuv420pOutput #0, flv, to '/RAID10/data/converted_video_files/13399.flv':  Metadata:    encoder         : Lavf52.84.0    Stream #0.0(eng): Video: flv, yuv420p, 512x512, q=2-31, 600 kb/s, 1k tbn, 24 tbcStream mapping:  Stream #0.0 -> #0.0Press [q] to stop encodingframe=   28 fps=  0 q=22.7 size=     460kB time=1.17 bitrate=3231.1kbits/s dup=0 drop=6    frame=   56 fps= 53 q=17.1 size=     502kB time=2.33 bitrate=1761.5kbits/s dup=0 drop=13    frame=   84 fps= 54 q=16.0 size=     554kB time=3.50 bitrate=1296.7kbits/s dup=0 drop=21    frame=  111 fps= 54 q=16.8 size=     624kB time=4.62 bitrate=1105.1kbits/s dup=0 drop=27    frame=  136 fps= 53 q=16.3 size=     684kB time=5.67 bitrate= 988.5kbits/s dup=0 drop=34    frame=  163 fps= 53 q=16.4 size=     752kB time=6.79 bitrate= 906.5kbits/s dup=0 drop=40    frame=  186 fps= 52 q=15.9 size=     816kB time=7.75 bitrate= 862.9kbits/s dup=0 drop=46    frame=  200 fps= 51 q=16.1 Lsize=     854kB time=8.33 bitrate= 839.8kbits/s dup=0 drop=50    video:851kB audio:0kB global headers:0kB muxing overhead 0.391353%